<svg height="100%" stroke-miterlimit="10" style="fill-rule:nonzero;clip-rule:evenodd;stroke-linecap:round;stroke-linejoin:round;" version="1.1" viewBox="0 0 172.291 43.4238" width="100%" xml:space="preserve" xmlns="http://www.w3.org/2000/svg" xmlns:xlink="http://www.w3.org/1999/xlink">
<defs>
<clipPath id="TextBounds">
<rect height="41.327" width="166.121" x="2.86358" y="1.00126"/>
</clipPath>
</defs>
<g id="图层-1">
<g fill="#4f4f4f" opacity="1" stroke="none">

<path clip-path="url(#TextBounds)" d="M106.668 26.8626C106.668 27.6829 106.466 28.5706 106.062 29.5257C105.658 30.4808 105.022 31.4183 104.155 32.3382C103.287 33.2581 102.18 34.0052 100.832 34.5794C99.4847 35.1536 97.9144 35.4407 96.1214 35.4407C94.762 35.4407 93.5257 35.3118 92.4124 35.054C91.2991 34.7962 90.2884 34.3948 89.3802 33.8499C88.472 33.305 87.637 32.5872 86.8753 31.6966C86.1956 30.888 85.6155 29.9827 85.1351 28.9808C84.6546 27.9788 84.2942 26.9095 84.054 25.7727C83.8138 24.636 83.6937 23.429 83.6937 22.1517C83.6937 20.0774 83.9954 18.22 84.5989 16.5794C85.2024 14.9388 86.0667 13.5354 87.1917 12.3694C88.3167 11.2034 89.6351 10.3157 91.1468 9.70634C92.6585 9.09697 94.2698 8.79228 95.9808 8.79228C98.0667 8.79228 99.9241 9.20829 101.553 10.0403C103.182 10.8724 104.43 11.9007 105.297 13.1253C106.164 14.3499 106.598 15.5071 106.598 16.597C106.598 17.1946 106.387 17.722 105.965 18.179C105.543 18.636 105.033 18.8645 104.436 18.8645C103.768 18.8645 103.267 18.7063 102.933 18.3899C102.599 18.0735 102.227 17.5286 101.817 16.7552C101.137 15.4778 100.337 14.5227 99.4173 13.8899C98.4974 13.2571 97.3636 12.9407 96.0159 12.9407C93.8714 12.9407 92.1634 13.7552 90.8919 15.3841C89.6204 17.013 88.9847 19.3274 88.9847 22.3274C88.9847 24.3313 89.2659 25.9983 89.8284 27.3284C90.3909 28.6585 91.1878 29.6517 92.219 30.3079C93.2503 30.9642 94.4573 31.2923 95.8401 31.2923C97.3401 31.2923 98.6087 30.9202 99.6458 30.1761C100.683 29.4319 101.465 28.3392 101.992 26.8977C102.215 26.2181 102.491 25.6643 102.819 25.2366C103.147 24.8089 103.674 24.595 104.401 24.595C105.022 24.595 105.555 24.8118 106 25.2454C106.446 25.679 106.668 26.2181 106.668 26.8626Z" fill-rule="evenodd"/>
<path clip-path="url(#TextBounds)" d="M115.721 11.7102L115.721 18.8294C116.33 18.1263 116.925 17.5696 117.505 17.1595C118.085 16.7493 118.727 16.4417 119.43 16.2366C120.133 16.0315 120.889 15.929 121.698 15.929C122.916 15.929 123.997 16.1868 124.941 16.7024C125.884 17.2181 126.625 17.9681 127.164 18.9524C127.504 19.5267 127.733 20.1683 127.85 20.8772C127.967 21.5862 128.026 22.4036 128.026 23.3294L128.026 32.5227C128.026 33.4837 127.806 34.2102 127.367 34.7024C126.927 35.1946 126.344 35.4407 125.617 35.4407C124.035 35.4407 123.244 34.4681 123.244 32.5227L123.244 24.4192C123.244 22.8841 123.016 21.7034 122.559 20.8772C122.102 20.0511 121.235 19.638 119.957 19.638C119.102 19.638 118.331 19.8811 117.646 20.3675C116.96 20.8538 116.448 21.5188 116.108 22.3626C115.85 23.0774 115.721 24.3489 115.721 26.177L115.721 32.5227C115.721 33.472 115.507 34.1956 115.079 34.6936C114.652 35.1917 114.057 35.4407 113.295 35.4407C111.713 35.4407 110.922 34.4681 110.922 32.5227L110.922 11.7102C110.922 10.7376 111.13 10.0081 111.546 9.52177C111.962 9.03544 112.545 8.79228 113.295 8.79228C114.057 8.79228 114.652 9.03837 115.079 9.53056C115.507 10.0227 115.721 10.7493 115.721 11.7102Z" fill-rule="evenodd"/>
<path clip-path="url(#TextBounds)" d="M144.901 32.7337C143.741 33.636 142.618 34.3128 141.534 34.764C140.45 35.2151 139.235 35.4407 137.887 35.4407C136.657 35.4407 135.575 35.1976 134.644 34.7112C133.712 34.2249 132.994 33.5657 132.491 32.7337C131.987 31.9017 131.735 30.9993 131.735 30.0267C131.735 28.7142 132.151 27.595 132.983 26.6692C133.815 25.7434 134.957 25.1224 136.41 24.8059C136.715 24.7356 137.471 24.5774 138.678 24.3313C139.885 24.0852 140.919 23.8597 141.781 23.6546C142.642 23.4495 143.576 23.2005 144.584 22.9075C144.526 21.6419 144.271 20.7132 143.82 20.1214C143.368 19.5296 142.434 19.2337 141.016 19.2337C139.797 19.2337 138.88 19.4036 138.265 19.7434C137.65 20.0833 137.122 20.5931 136.683 21.2727C136.243 21.9524 135.933 22.4007 135.751 22.6175C135.57 22.8343 135.18 22.9427 134.582 22.9427C134.043 22.9427 133.577 22.7698 133.185 22.4241C132.792 22.0784 132.596 21.636 132.596 21.097C132.596 20.2532 132.895 19.4329 133.492 18.636C134.09 17.8392 135.022 17.1829 136.287 16.6673C137.553 16.1517 139.129 15.8938 141.016 15.8938C143.125 15.8938 144.783 16.1429 145.991 16.6409C147.198 17.139 148.05 17.927 148.548 19.0052C149.046 20.0833 149.295 21.513 149.295 23.2942C149.295 24.4192 149.292 25.3743 149.286 26.1595C149.281 26.9446 149.272 27.8177 149.26 28.7786C149.26 29.6809 149.409 30.6214 149.708 31.5999C150.007 32.5784 150.157 33.2083 150.157 33.4895C150.157 33.9817 149.925 34.43 149.462 34.8343C148.999 35.2386 148.475 35.4407 147.889 35.4407C147.397 35.4407 146.91 35.2093 146.43 34.7464C145.95 34.2835 145.44 33.6126 144.901 32.7337ZM144.584 25.7903C143.881 26.0481 142.859 26.3206 141.517 26.6077C140.175 26.8948 139.246 27.1058 138.731 27.2405C138.215 27.3753 137.723 27.639 137.254 28.0315C136.785 28.4241 136.551 28.972 136.551 29.6751C136.551 30.4017 136.826 31.0198 137.377 31.5296C137.928 32.0393 138.649 32.2942 139.539 32.2942C140.489 32.2942 141.365 32.0862 142.167 31.6702C142.97 31.2542 143.559 30.7181 143.934 30.0618C144.367 29.3352 144.584 28.1399 144.584 26.4759L144.584 25.7903Z" fill-rule="evenodd"/>
<path clip-path="url(#TextBounds)" d="M153.532 16.3509L154.059 16.3509L154.059 13.4681C154.059 12.6946 154.079 12.0882 154.12 11.6487C154.161 11.2093 154.276 10.8313 154.463 10.5149C154.651 10.1868 154.92 9.92021 155.272 9.71513C155.623 9.51005 156.016 9.40751 156.45 9.40751C157.059 9.40751 157.61 9.63603 158.102 10.0931C158.43 10.3977 158.638 10.7698 158.726 11.2093C158.814 11.6487 158.858 12.2727 158.858 13.0813L158.858 16.3509L160.616 16.3509C161.295 16.3509 161.814 16.512 162.171 16.8343C162.529 17.1565 162.707 17.5696 162.707 18.0735C162.707 18.7181 162.452 19.1692 161.943 19.427C161.433 19.6849 160.703 19.8138 159.754 19.8138L158.858 19.8138L158.858 28.638C158.858 29.388 158.884 29.9651 158.937 30.3694C158.99 30.7737 159.13 31.1018 159.359 31.3538C159.587 31.6058 159.959 31.7317 160.475 31.7317C160.756 31.7317 161.137 31.6819 161.617 31.5823C162.098 31.4827 162.473 31.4329 162.742 31.4329C163.129 31.4329 163.478 31.5882 163.788 31.8987C164.099 32.2093 164.254 32.5931 164.254 33.0501C164.254 33.8235 163.832 34.4153 162.989 34.8255C162.145 35.2356 160.932 35.4407 159.35 35.4407C157.85 35.4407 156.713 35.1888 155.94 34.6849C155.166 34.1809 154.659 33.4837 154.419 32.5931C154.179 31.7024 154.059 30.513 154.059 29.0247L154.059 19.8138L153.426 19.8138C152.735 19.8138 152.207 19.6497 151.844 19.3216C151.481 18.9934 151.299 18.5774 151.299 18.0735C151.299 17.5696 151.49 17.1565 151.87 16.8343C152.251 16.512 152.805 16.3509 153.532 16.3509Z" fill-rule="evenodd"/>
</g>
</g>
</svg>
